<svg version="1.1" id="Слой_1" xmlns="http://www.w3.org/2000/svg" x="0" y="0" viewBox="0 0 50 50" xml:space="preserve"><style>.st1,.st2{fill:#ececec;stroke:#878787;stroke-miterlimit:10}.st2{fill:none}</style><circle cx="25" cy="25" r="25" fill="#ececec"/><circle class="st1" cx="25" cy="25" r="12.5"/><path class="st1" d="M25 36.7V12.8c0-.1-.1-.2-.3-.1-1.2 1-6.4 5.8-6.4 13.1 0 5.5 4.5 9.8 6.1 11.2.2.2.6 0 .6-.3z"/><path class="st2" d="M25 12.5s6.7 5 6.7 13.3S25 37.5 25 37.5"/><path class="st1" d="M38.2 30.8H11.8c-.6 0-1-.4-1-1v-9.7c0-.6.4-1 1-1h26.3c.6 0 1 .4 1 1v9.7c.1.6-.4 1-.9 1z"/><path class="st2" d="M17.8 14.8s2.2 1 7.2 1 7.2-1 7.2-1M17.8 35.2s2.2-1 7.2-1 7.2 1 7.2 1"/><path d="M18.2 27.4l-1.1-3.9-1 3.9h-1l-1.6-4.8h1l1.1 4 1-4h1l1 4 1.2-4h.9l-1.5 4.8zm7.8 0l-1.1-3.9-1 3.9h-1.1l-1.5-4.8h.9l1.2 4 1-4h1l1 4 1.2-4h.9L27 27.4zm7.7 0l-1-3.9-1.1 3.9h-1l-1.5-4.8h.9l1.1 4 1.1-4h1l1 4 1.2-4h.9l-1.6 4.8z" fill="#878787" stroke-width=".1" stroke="#878787" stroke-miterlimit="10"/></svg>