<svg width="96" height="24" fill="none" xmlns="http://www.w3.org/2000/svg"><path fill-rule="evenodd" clip-rule="evenodd" d="M0 14.533C0 19.247 2.634 24 8.533 24c5.894 0 8.533-4.753 8.533-9.467 0-3.22-1.082-6.927-2.889-9.921C12.42 1.72 10.31 0 8.533 0 6.753 0 4.64 1.72 2.898 4.612 1.083 7.606 0 11.314 0 14.533zm60.584-7.461h-5.973V1.286h18.347v5.786h-5.974v15.643h-6.4V7.072zm26.026 0h9.388V1.286H86.61c-8.625 0-13.23 4.307-13.23 10.715 0 6.407 4.605 10.714 13.23 10.714h9.386v-5.786H86.61c-3.99 0-6.615-1.433-6.615-4.928 0-3.496 2.625-4.93 6.615-4.93zm-48.426 7.005l3.412-12.79h11.31v21.428h-6.4V5.274l-4.653 17.44h-7.338l-4.65-17.43v17.43h-6.4V1.287h11.307l3.412 12.79z" fill="#E30611"/></svg>