<svg version="1.1" id="Слой_1" xmlns="http://www.w3.org/2000/svg" x="0" y="0" viewBox="0 0 20 20" xml:space="preserve"><style>.st0{fill:#fff}</style><path class="st0" d="M8.4 7.3c1.5-1.5 2.7-2 3.2-2s.8.5 1.2 1l.1.2c.1.1.3.3.4.5.1.1.2.3.3.4.6.5 1.4.6 2.1.2C17.2 7 19 4.9 19 3.2c0-1-1.1-2.2-2.5-2.7C12.6-.9 8.3.4 4.4 4.2l-.1.1C-1.2 9.9-.1 14.6.6 16.4c.6 1.5 1.7 2.5 2.7 2.5 1.7 0 3.8-1.7 4.4-3.2.4-1.2.1-1.8-.3-2.1-.3-.3-.6-.5-.9-.7l-.2-.1c-.5-.3-.9-.6-1-1.2-.1-.4.1-1.4 2-3.2l1.1-1.1zm-4.5 4.5c.1 1.1 1 1.7 1.7 2.2l.2.1c.2.1.4.3.6.4.1.1 0 .3-.1.5-.5 1.1-2.1 2.4-3 2.4-.2 0-.8-.4-1.3-1.6-.5-1.2-1.7-5.4 3.4-10.5l.1-.1c5.2-5 9.3-3.8 10.5-3.4 1.1.5 1.6 1.2 1.6 1.3-.3 1.4-1.2 2.5-2.4 3.1-.4.1-.5.1-.5.1-.1-.1-.2-.2-.3-.4-.1-.1-.2-.2-.2-.3-.4-1-1.3-1.7-2.4-1.9-1.3-.1-2.6.6-4.4 2.4l-1 1.3c-1.8 1.8-2.6 3.2-2.5 4.4zm14.5-2.6v.2c0 5-4.1 9-9 9h-.2V20h.2c5.8 0 10.5-4.7 10.5-10.5v-.2h-1.5z"/><path class="st0" d="M9.1 16.5v.2h.2c4.1 0 7.4-3.3 7.3-7.4v-.2h-1.2l-.2.1v.2c0 1.6-.6 3-1.7 4.2-1.1 1.1-2.6 1.7-4.1 1.7h-.2v1.2z"/><path class="st0" d="M13.6 9.5v-.2h-1.5v.2c0 1.5-1.3 2.8-2.8 2.8h-.2v1.5h.2c2.4-.1 4.3-2 4.3-4.3z"/></svg>