<svg height="512" width="512" xmlns="http://www.w3.org/2000/svg" data-name="Outline expand"><g data-name="20 copy 3"><path d="M72 80H56a8 8 0 00-8 8v16h16v-8h8zm392 24V88a8 8 0 00-8-8h-16v16h8v8zM48 264v16a8 8 0 008 8h16v-16h-8v-8zm192.516-24h16v16h-16z"/><path d="M248.516 200a48.131 48.131 0 00-47.04 38.408l15.68 3.184a32.01 32.01 0 0162.72 0l15.68-3.184A48.134 48.134 0 00248.516 200z"/><path d="M248.516 184a63.682 63.682 0 0157.352 35.561l14.328-7.122a80.029 80.029 0 00-143.36 0l14.328 7.122A63.682 63.682 0 01248.516 184zM468 272H332a28.032 28.032 0 00-28 28v136a28.032 28.032 0 0028 28h136a28.032 28.032 0 0028-28v-12h-16v12a12.013 12.013 0 01-12 12H332a12.013 12.013 0 01-12-12V300a12.013 12.013 0 0112-12h136a12.013 12.013 0 0112 12v108h16V300a28.032 28.032 0 00-28-28z"/><path d="M384 408v-56h24v-16h-64v16h24v56z"/><path d="M424 408a8 8 0 006.4-3.2l24-32-12.8-9.6-17.6 23.467-17.6-23.467-12.8 9.6 24 32a8 8 0 006.4 3.2zM260 272h-24a28.032 28.032 0 00-28 28v136a28.032 28.032 0 0028 28h24a28.032 28.032 0 0028-28V300a28.032 28.032 0 00-28-28zm12 164a12.013 12.013 0 01-12 12h-24a12.013 12.013 0 01-12-12v-14.856a31.957 31.957 0 0048 0zm-40-36a16 16 0 1116 16 16.019 16.019 0 01-16-16zm40-21.144a31.957 31.957 0 00-48 0V300a12.013 12.013 0 0112-12h24a12.013 12.013 0 0112 12z"/><path d="M232 336h32v16h-32zm8-32h16v16h-16zM32 66a2 2 0 012-2h38V48H34a18.021 18.021 0 00-18 18v268a18.021 18.021 0 0018 18h33.056l-10.211 20.422A7.994 7.994 0 0056 376v8H44a28.032 28.032 0 00-28 28v12a8 8 0 008 8h168v-16H32v-4a12.013 12.013 0 0112-12h148v-16h-56v-8a7.994 7.994 0 00-.845-3.578L124.944 352H192v-16H34a2 2 0 01-1.959-1.6 1.377 1.377 0 01-.018-.1 1.9 1.9 0 01-.02-.2V320H192v-16H32zm40 311.889L84.944 352h22.112L120 377.889V384H72zM478 48H88v16h390a2 2 0 012 2v190h16V66a18.021 18.021 0 00-18-18zM328 296h16v16h-16zm128 0h16v16h-16zM328 424h16v16h-16zm128 0h16v16h-16z"/></g></svg>