<?xml version="1.0" encoding="utf-8"?>
<!-- Generator: Adobe Illustrator 21.0.0, SVG Export Plug-In . SVG Version: 6.00 Build 0)  -->
<svg version="1.1" id="Слой_1" xmlns="http://www.w3.org/2000/svg" xmlns:xlink="http://www.w3.org/1999/xlink" x="0px" y="0px"
	 viewBox="0 0 20 20" style="enable-background:new 0 0 20 20;" xml:space="preserve">
<style type="text/css">
	.st0{fill:#FFFFFF;}
</style>
<title>Монтажная область 1</title>
<g>
	<path class="st0" d="M8.4,7.3c1.5-1.5,2.7-2,3.2-2c0.5,0,0.8,0.5,1.2,1l0.1,0.2c0.1,0.1,0.3,0.3,0.4,0.5c0.1,0.1,0.2,0.3,0.3,0.4
		c0.6,0.5,1.4,0.6,2.1,0.2C17.2,7,19,4.9,19,3.2c0-1-1.1-2.2-2.5-2.7C12.6-0.9,8.3,0.4,4.4,4.2L4.3,4.3c-5.5,5.6-4.4,10.3-3.7,12.1
		c0.6,1.5,1.7,2.5,2.7,2.5c1.7,0,3.8-1.7,4.4-3.2c0.4-1.2,0.1-1.8-0.3-2.1c-0.3-0.3-0.6-0.5-0.9-0.7l-0.2-0.1
		c-0.5-0.3-0.9-0.6-1-1.2c-0.1-0.4,0.1-1.4,2-3.2L8.4,7.3z M3.9,11.8c0.1,1.1,1,1.7,1.7,2.2l0.2,0.1c0.2,0.1,0.4,0.3,0.6,0.4
		c0.1,0.1,0,0.3-0.1,0.5c-0.5,1.1-2.1,2.4-3,2.4c-0.2,0-0.8-0.4-1.3-1.6c-0.5-1.2-1.7-5.4,3.4-10.5l0.1-0.1c5.2-5,9.3-3.8,10.5-3.4
		c1.1,0.5,1.6,1.2,1.6,1.3c-0.3,1.4-1.2,2.5-2.4,3.1c-0.4,0.1-0.5,0.1-0.5,0.1c-0.1-0.1-0.2-0.2-0.3-0.4c-0.1-0.1-0.2-0.2-0.2-0.3
		c-0.4-1-1.3-1.7-2.4-1.9c-1.3-0.1-2.6,0.6-4.4,2.4L6.4,7.4C4.6,9.2,3.8,10.6,3.9,11.8z"/>
	<path class="st0" d="M18.4,9.2l0,0.2c0,5-4.1,9-9,9l-0.2,0V20l0.2,0c5.8,0,10.5-4.7,10.5-10.5l0-0.2H18.4z"/>
	<path class="st0" d="M9.1,16.5l0,0.2l0.2,0c4.1,0,7.4-3.3,7.3-7.4l0-0.2h-1.2l-0.2,0.1l0,0.2c0,1.6-0.6,3-1.7,4.2
		c-1.1,1.1-2.6,1.7-4.1,1.7c0,0,0,0,0,0l-0.2,0V16.5z"/>
	<path class="st0" d="M13.6,9.5l0-0.2h-1.5l0,0.2c0,1.5-1.3,2.8-2.8,2.8l-0.2,0v1.5l0.2,0C11.7,13.7,13.6,11.8,13.6,9.5z"/>
</g>
</svg>
