<svg id="Outline_expand" height="512" viewBox="0 0 512 512" width="512" xmlns="http://www.w3.org/2000/svg" data-name="Outline expand"><g id="_20_copy_3" data-name="20 copy 3"><g><path d="m72 80h-16a8 8 0 0 0 -8 8v16h16v-8h8z"/><path d="m464 104v-16a8 8 0 0 0 -8-8h-16v16h8v8z"/><path d="m48 264v16a8 8 0 0 0 8 8h16v-16h-8v-8z"/><path d="m240.516 240h16v16h-16z"/><path d="m248.516 200a48.131 48.131 0 0 0 -47.04 38.408l15.68 3.184a32.01 32.01 0 0 1 62.72 0l15.68-3.184a48.134 48.134 0 0 0 -47.04-38.408z"/><path d="m248.516 184a63.682 63.682 0 0 1 57.352 35.561l14.328-7.122a80.029 80.029 0 0 0 -143.36 0l14.328 7.122a63.682 63.682 0 0 1 57.352-35.561z"/><path d="m468 272h-136a28.032 28.032 0 0 0 -28 28v136a28.032 28.032 0 0 0 28 28h136a28.032 28.032 0 0 0 28-28v-12h-16v12a12.013 12.013 0 0 1 -12 12h-136a12.013 12.013 0 0 1 -12-12v-136a12.013 12.013 0 0 1 12-12h136a12.013 12.013 0 0 1 12 12v108h16v-108a28.032 28.032 0 0 0 -28-28z"/><path d="m384 408v-56h24v-16h-64v16h24v56z"/><path d="m424 408a8 8 0 0 0 6.4-3.2l24-32-12.8-9.6-17.6 23.467-17.6-23.467-12.8 9.6 24 32a8 8 0 0 0 6.4 3.2z"/><path d="m260 272h-24a28.032 28.032 0 0 0 -28 28v136a28.032 28.032 0 0 0 28 28h24a28.032 28.032 0 0 0 28-28v-136a28.032 28.032 0 0 0 -28-28zm12 164a12.013 12.013 0 0 1 -12 12h-24a12.013 12.013 0 0 1 -12-12v-14.856a31.957 31.957 0 0 0 48 0zm-40-36a16 16 0 1 1 16 16 16.019 16.019 0 0 1 -16-16zm40-21.144a31.957 31.957 0 0 0 -48 0v-78.856a12.013 12.013 0 0 1 12-12h24a12.013 12.013 0 0 1 12 12z"/><path d="m232 336h32v16h-32z"/><path d="m240 304h16v16h-16z"/><path d="m32 66a2 2 0 0 1 2-2h38v-16h-38a18.021 18.021 0 0 0 -18 18v268a18.021 18.021 0 0 0 18 18h33.056l-10.211 20.422a7.994 7.994 0 0 0 -.845 3.578v8h-12a28.032 28.032 0 0 0 -28 28v12a8 8 0 0 0 8 8h168v-16h-160v-4a12.013 12.013 0 0 1 12-12h148v-16h-56v-8a7.994 7.994 0 0 0 -.845-3.578l-10.211-20.422h67.056v-16h-158a2 2 0 0 1 -1.959-1.6c-.007-.032-.013-.065-.018-.1a1.9 1.9 0 0 1 -.02-.2c0-.034 0-.069 0-.1v-14h159.997v-16h-160zm40 311.889 12.944-25.889h22.112l12.944 25.889v6.111h-48z"/><path d="m478 48h-390v16h390a2 2 0 0 1 2 2v190h16v-190a18.021 18.021 0 0 0 -18-18z"/><path d="m328 296h16v16h-16z"/><path d="m456 296h16v16h-16z"/><path d="m328 424h16v16h-16z"/><path d="m456 424h16v16h-16z"/></g></g></svg>